<?xml version="1.0" encoding="UTF-8" standalone="no"?>
<!-- Created with Inkscape (http://www.inkscape.org/) -->
<svg xmlns:svg="http://www.w3.org/2000/svg" xmlns="http://www.w3.org/2000/svg" version="1.1" width="750" height="57" id="svg2">
  <defs id="defs4"/>
  <path d="m 376.87863,32.080635 c -1.32032,1.7e-5 -2.31478,0.651709 -2.9834,1.955078 -0.66016,1.294936 -0.99024,3.24578 -0.99023,5.852539 -10e-6,2.598314 0.33007,4.549159 0.99023,5.852539 0.66862,1.294925 1.66308,1.942385 2.9834,1.942383 1.32877,2e-6 2.32323,-0.647458 2.9834,-1.942383 0.66861,-1.30338 1.00292,-3.254225 1.00293,-5.852539 -10e-6,-2.606759 -0.33432,-4.557603 -1.00293,-5.852539 -0.66017,-1.303369 -1.65463,-1.955061 -2.9834,-1.955078 m 0,-2.03125 c 2.12434,1.9e-5 3.74511,0.842141 4.86231,2.526367 1.12563,1.675797 1.68846,4.113294 1.68847,7.3125 -1e-5,3.190762 -0.56284,5.628259 -1.68847,7.3125 -1.1172,1.675782 -2.73797,2.513672 -4.86231,2.513672 -2.12435,0 -3.74935,-0.83789 -4.875,-2.513672 -1.11719,-1.684241 -1.67578,-4.121738 -1.67578,-7.3125 0,-3.199206 0.55859,-5.636703 1.67578,-7.3125 1.12565,-1.684226 2.75065,-2.526348 4.875,-2.526367" id="path4006" style="font-size:26px;font-style:normal;font-weight:normal;fill:#681e8b;fill-opacity:1;stroke:none;font-family:Bitstream Vera Sans"/>
  <g id="g4378">
    <g id="text8754" style="font-size:19px;font-style:normal;font-variant:normal;font-weight:normal;font-stretch:normal;text-align:start;line-height:125%;writing-mode:lr-tb;text-anchor:start;fill:#681e8b;fill-opacity:1;stroke:none;font-family:Bitstream Vera Sans;-inkscape-font-specification:Bitstream Vera Sans">
      <path d="m 404.79501,42.831215 3.06153,0 0,-10.566895 -3.33057,0.667969 0,-1.707031 3.31201,-0.667969 1.87403,0 0,12.273926 3.06152,0 0,1.577148 -7.97852,0 0,-1.577148" id="path4003" style="line-height:125%;fill:#681e8b;fill-opacity:1;stroke:none;font-family:Bitstream Vera Sans;-inkscape-font-specification:Bitstream Vera Sans"/>
    </g>
    <g id="text8758" style="font-size:19px;font-style:normal;font-variant:normal;font-weight:normal;font-stretch:normal;text-align:start;line-height:125%;writing-mode:lr-tb;text-anchor:start;fill:#681e8b;fill-opacity:1;stroke:none;font-family:Bitstream Vera Sans;-inkscape-font-specification:Bitstream Vera Sans">
      <path d="m 437.93399,42.831215 6.54053,0 0,1.577148 -8.79492,0 0,-1.577148 c 0.71126,-0.736 1.67919,-1.72249 2.9038,-2.959473 1.23079,-1.243158 2.0039,-2.044101 2.31934,-2.402832 0.59993,-0.674146 1.01741,-1.243156 1.25244,-1.707031 0.2412,-0.470043 0.36181,-0.930817 0.36182,-1.382324 -10e-6,-0.735992 -0.25978,-1.335926 -0.7793,-1.799805 -0.51335,-0.463855 -1.18441,-0.695788 -2.01318,-0.695801 -0.58757,1.3e-5 -1.20915,0.102063 -1.86475,0.306153 -0.64942,0.204113 -1.34522,0.513358 -2.0874,0.927734 l 0,-1.892578 c 0.75455,-0.303047 1.45963,-0.531887 2.11523,-0.686524 0.6556,-0.154608 1.25553,-0.231919 1.79981,-0.231933 1.43489,1.4e-5 2.57909,0.358738 3.43262,1.076172 0.8535,0.71746 1.28026,1.676118 1.28027,2.875976 -1e-5,0.56902 -0.10825,1.110198 -0.32471,1.623535 -0.21029,0.50717 -0.59685,1.107104 -1.15967,1.799805 -0.15463,0.179369 -0.64633,0.698899 -1.47509,1.558594 -0.82879,0.85352 -1.99773,2.050296 -3.50684,3.590332" id="path4000" style="line-height:125%;fill:#681e8b;fill-opacity:1;stroke:none;font-family:Bitstream Vera Sans;-inkscape-font-specification:Bitstream Vera Sans"/>
    </g>
    <g id="text8762" style="font-size:19px;font-style:normal;font-variant:normal;font-weight:normal;font-stretch:normal;text-align:start;line-height:125%;writing-mode:lr-tb;text-anchor:start;fill:#681e8b;fill-opacity:1;stroke:none;font-family:Bitstream Vera Sans;-inkscape-font-specification:Bitstream Vera Sans">
      <path d="m 473.60001,36.940102 c 0.8968,0.191739 1.59569,0.590664 2.09668,1.196777 0.50715,0.606125 0.76073,1.354497 0.76074,2.245117 -10e-6,1.366865 -0.47006,2.424481 -1.41016,3.172852 -0.94011,0.748372 -2.27605,1.122558 -4.00781,1.122558 -0.58139,0 -1.18132,-0.05876 -1.79981,-0.176269 -0.6123,-0.111328 -1.24625,-0.281413 -1.90185,-0.510254 l 0,-1.809082 c 0.51953,0.303062 1.08854,0.531903 1.70703,0.686523 0.61849,0.154624 1.26481,0.231935 1.93897,0.231934 1.17512,1e-6 2.06884,-0.231932 2.68115,-0.695801 0.61848,-0.463865 0.92772,-1.138018 0.92773,-2.022461 -10e-6,-0.816401 -0.2876,-1.453445 -0.86279,-1.911133 -0.56902,-0.46386 -1.36378,-0.695794 -2.38428,-0.6958 l -1.61426,0 0,-1.54004 1.68848,0 c 0.92154,9e-6 1.62662,-0.182446 2.11523,-0.547363 0.4886,-0.371084 0.73291,-0.902985 0.73291,-1.595703 0,-0.711252 -0.25358,-1.255522 -0.76074,-1.632812 -0.50098,-0.383452 -1.22152,-0.575183 -2.16162,-0.575196 -0.51335,1.3e-5 -1.0638,0.05568 -1.65137,0.166992 -0.58756,0.111341 -1.23388,0.284518 -1.93896,0.519532 l 0,-1.669922 c 0.71126,-0.197903 1.37614,-0.34634 1.99463,-0.445313 0.62467,-0.09894 1.21223,-0.148423 1.76269,-0.148437 1.42252,1.4e-5 2.54817,0.324721 3.37696,0.974121 0.82876,0.643242 1.24315,1.515311 1.24316,2.616211 -1e-5,0.766937 -0.21957,1.41635 -0.65869,1.948242 -0.43914,0.525724 -1.06381,0.890633 -1.87402,1.094727" id="path3997" style="line-height:125%;fill:#681e8b;fill-opacity:1;stroke:none;font-family:Bitstream Vera Sans;-inkscape-font-specification:Bitstream Vera Sans"/>
    </g>
    <g id="text8766" style="font-size:19px;font-style:normal;font-variant:normal;font-weight:normal;font-stretch:normal;text-align:start;line-height:125%;writing-mode:lr-tb;text-anchor:start;fill:#681e8b;fill-opacity:1;stroke:none;font-family:Bitstream Vera Sans;-inkscape-font-specification:Bitstream Vera Sans">
      <path d="m 504.17993,32.190102 -4.73144,7.394043 4.73144,0 0,-7.394043 m -0.4917,-1.632813 2.35645,0 0,9.026856 1.97607,0 0,1.558593 -1.97607,0 0,3.265625 -1.86475,0 0,-3.265625 -6.25293,0 0,-1.809082 5.76123,-8.776367" id="path3994" style="line-height:125%;fill:#681e8b;fill-opacity:1;stroke:none;font-family:Bitstream Vera Sans;-inkscape-font-specification:Bitstream Vera Sans"/>
    </g>
    <g id="text8770" style="font-size:19px;font-style:normal;font-variant:normal;font-weight:normal;font-stretch:normal;text-align:start;line-height:125%;writing-mode:lr-tb;text-anchor:start;fill:#681e8b;fill-opacity:1;stroke:none;font-family:Bitstream Vera Sans;-inkscape-font-specification:Bitstream Vera Sans">
      <path d="m 531.63965,30.557289 7.35693,0 0,1.577149 -5.64062,0 0,3.395507 c 0.27213,-0.09276 0.54426,-0.160798 0.8164,-0.204101 0.27213,-0.04947 0.54427,-0.07421 0.81641,-0.07422 1.54622,9e-6 2.77082,0.423674 3.67383,1.270996 0.90298,0.847338 1.35448,1.994635 1.35449,3.441895 -1e-5,1.490563 -0.46388,2.650229 -1.3916,3.479004 -0.92774,0.822591 -2.23585,1.233886 -3.92432,1.233886 -0.58138,0 -1.17513,-0.04948 -1.78125,-0.148437 -0.59994,-0.09896 -1.22152,-0.247396 -1.86474,-0.445313 l 0,-1.8833 c 0.55663,0.303061 1.13183,0.52881 1.72558,0.677246 0.59375,0.148439 1.22151,0.222657 1.8833,0.222656 1.06998,10e-7 1.91731,-0.281411 2.54199,-0.844238 0.62467,-0.562823 0.93701,-1.326657 0.93702,-2.291504 -10e-6,-0.964839 -0.31235,-1.728673 -0.93702,-2.291504 -0.62468,-0.562818 -1.47201,-0.844231 -2.54199,-0.844239 -0.50098,8e-6 -1.00195,0.05567 -1.50293,0.166993 -0.49479,0.111335 -1.00195,0.284512 -1.52148,0.519531 l 0,-6.958008" id="path3991" style="line-height:125%;fill:#681e8b;fill-opacity:1;stroke:none;font-family:Bitstream Vera Sans;-inkscape-font-specification:Bitstream Vera Sans"/>
    </g>
    <g id="text8774" style="font-size:19px;font-style:normal;font-variant:normal;font-weight:normal;font-stretch:normal;text-align:start;line-height:125%;writing-mode:lr-tb;text-anchor:start;fill:#681e8b;fill-opacity:1;stroke:none;font-family:Bitstream Vera Sans;-inkscape-font-specification:Bitstream Vera Sans">
      <path d="m 567.71027,36.736 c -0.84116,8e-6 -1.50912,0.287605 -2.00391,0.862793 -0.48861,0.575202 -0.73291,1.363775 -0.73291,2.365723 0,0.995771 0.2443,1.784345 0.73291,2.365722 0.49479,0.575197 1.16275,0.862795 2.00391,0.862793 0.84113,2e-6 1.50601,-0.287596 1.99463,-0.862793 0.49478,-0.581377 0.74217,-1.369951 0.74218,-2.365722 -10e-6,-1.001948 -0.2474,-1.790521 -0.74218,-2.365723 -0.48862,-0.575188 -1.1535,-0.862785 -1.99463,-0.862793 m 3.72021,-5.872559 0,1.707032 c -0.47006,-0.222644 -0.9463,-0.392729 -1.42871,-0.510254 -0.47625,-0.117501 -0.94939,-0.176257 -1.41943,-0.17627 -1.23699,1.3e-5 -2.18328,0.417493 -2.83887,1.252442 -0.64942,0.834971 -1.02051,2.096689 -1.11328,3.785156 0.3649,-0.538078 0.82259,-0.949373 1.37304,-1.233887 0.55046,-0.290681 1.15657,-0.436026 1.81836,-0.436035 1.3916,9e-6 2.48942,0.423674 3.29346,1.270996 0.81021,0.841153 1.21532,1.98845 1.21533,3.441895 -10e-6,1.422529 -0.42058,2.563641 -1.26172,3.42334 -0.84115,0.8597 -1.96062,1.28955 -3.35839,1.28955 -1.6019,0 -2.8265,-0.612304 -3.67383,-1.836914 -0.84733,-1.230791 -1.271,-3.012039 -1.271,-5.34375 0,-2.189444 0.51953,-3.933583 1.5586,-5.232422 1.03905,-1.304999 2.43375,-1.957505 4.18408,-1.957519 0.47004,1.4e-5 0.94319,0.0464 1.41943,0.13916 0.48241,0.09279 0.98339,0.231947 1.50293,0.41748" id="path3988" style="line-height:125%;fill:#681e8b;fill-opacity:1;stroke:none;font-family:Bitstream Vera Sans;-inkscape-font-specification:Bitstream Vera Sans"/>
    </g>
    <g id="text8778" style="font-size:19px;font-style:normal;font-variant:normal;font-weight:normal;font-stretch:normal;text-align:start;line-height:125%;writing-mode:lr-tb;text-anchor:start;fill:#681e8b;fill-opacity:1;stroke:none;font-family:Bitstream Vera Sans;-inkscape-font-specification:Bitstream Vera Sans">
      <path d="m 594.59991,30.557289 8.90625,0 0,0.797852 -5.02832,13.053222 -1.95752,0 4.73145,-12.273925 -6.65186,0 0,-1.577149" id="path3985" style="line-height:125%;fill:#681e8b;fill-opacity:1;stroke:none;font-family:Bitstream Vera Sans;-inkscape-font-specification:Bitstream Vera Sans"/>
    </g>
    <g id="text8782" style="font-size:19px;font-style:normal;font-variant:normal;font-weight:normal;font-stretch:normal;text-align:start;line-height:125%;writing-mode:lr-tb;text-anchor:start;fill:#681e8b;fill-opacity:1;stroke:none;font-family:Bitstream Vera Sans;-inkscape-font-specification:Bitstream Vera Sans">
      <path d="m 630.18964,37.830727 c -0.89063,6e-6 -1.59262,0.238124 -2.10596,0.714355 -0.50717,0.476242 -0.76075,1.131841 -0.76074,1.966797 -10e-6,0.834964 0.25357,1.490562 0.76074,1.966797 0.51334,0.476238 1.21533,0.714357 2.10596,0.714355 0.89061,2e-6 1.5926,-0.238117 2.10595,-0.714355 0.51334,-0.48242 0.77001,-1.138018 0.77002,-1.966797 -10e-6,-0.834956 -0.25668,-1.490555 -0.77002,-1.966797 -0.50717,-0.476231 -1.20915,-0.714349 -2.10595,-0.714355 m -1.87403,-0.797852 c -0.80404,-0.197909 -1.4318,-0.572095 -1.8833,-1.122559 -0.44531,-0.550446 -0.66797,-1.221507 -0.66797,-2.013183 0,-1.107085 0.39274,-1.982247 1.17823,-2.625488 0.79166,-0.643216 1.87401,-0.96483 3.24707,-0.964844 1.37922,1.4e-5 2.46158,0.321628 3.24707,0.964844 0.78547,0.643241 1.17821,1.518403 1.17822,2.625488 -10e-6,0.791676 -0.22576,1.462737 -0.67725,2.013183 -0.44532,0.550464 -1.0669,0.92465 -1.86474,1.122559 0.90298,0.210294 1.60497,0.621589 2.10595,1.233887 0.50715,0.61231 0.76074,1.360682 0.76075,2.245117 -1e-5,1.342125 -0.41131,2.371909 -1.23389,3.089355 -0.81642,0.717448 -1.98845,1.076172 -3.51611,1.076172 -1.52768,0 -2.70281,-0.358724 -3.52539,-1.076172 -0.81641,-0.717446 -1.22462,-1.74723 -1.22461,-3.089355 -1e-5,-0.884435 0.25358,-1.632807 0.76074,-2.245117 0.50716,-0.612298 1.21223,-1.023593 2.11523,-1.233887 m -0.68652,-2.959473 c 0,0.717458 0.22265,1.27719 0.66797,1.6792 0.45149,0.402026 1.08235,0.603035 1.89258,0.603027 0.80403,8e-6 1.43179,-0.201001 1.8833,-0.603027 0.45767,-0.40201 0.68651,-0.961742 0.68652,-1.6792 -10e-6,-0.717436 -0.22885,-1.277169 -0.68652,-1.679199 -0.45151,-0.402006 -1.07927,-0.603015 -1.8833,-0.603027 -0.81023,1.2e-5 -1.44109,0.201021 -1.89258,0.603027 -0.44532,0.40203 -0.66797,0.961763 -0.66797,1.679199" id="path3982" style="line-height:125%;fill:#681e8b;fill-opacity:1;stroke:none;font-family:Bitstream Vera Sans;-inkscape-font-specification:Bitstream Vera Sans"/>
    </g>
    <g id="text8786" style="font-size:19px;font-style:normal;font-variant:normal;font-weight:normal;font-stretch:normal;text-align:start;line-height:125%;writing-mode:lr-tb;text-anchor:start;fill:#681e8b;fill-opacity:1;stroke:none;font-family:Bitstream Vera Sans;-inkscape-font-specification:Bitstream Vera Sans">
      <path d="m 657.84003,44.120766 0,-1.707032 c 0.47005,0.222658 0.94628,0.392743 1.42871,0.510254 0.48242,0.117515 0.95556,0.176271 1.41943,0.17627 1.23697,1e-6 2.18017,-0.414386 2.82959,-1.243164 0.65559,-0.834958 1.02978,-2.099768 1.12256,-3.794434 -0.35873,0.531907 -0.81332,0.94011 -1.36377,1.22461 -0.55046,0.28451 -1.15967,0.426762 -1.82764,0.426757 -1.38542,5e-6 -2.48324,-0.417475 -3.29345,-1.252441 -0.80404,-0.841139 -1.20606,-1.988436 -1.20606,-3.441895 0,-1.422515 0.42057,-2.563627 1.26172,-3.423339 0.84114,-0.859687 1.96061,-1.289537 3.3584,-1.289551 1.60188,1.4e-5 2.8234,0.61541 3.66455,1.846191 0.84732,1.224621 1.27099,3.005869 1.271,5.34375 -1e-5,2.183273 -0.51955,3.927412 -1.5586,5.232422 -1.03288,1.298829 -2.42448,1.948242 -4.1748,1.948242 -0.47006,0 -0.9463,-0.04639 -1.42871,-0.13916 -0.48243,-0.09277 -0.9834,-0.231933 -1.50293,-0.41748 m 3.72949,-5.872559 c 0.84114,6e-6 1.50601,-0.287591 1.99463,-0.862793 0.49478,-0.575188 0.74218,-1.363761 0.74219,-2.365723 -10e-6,-0.995757 -0.24741,-1.781238 -0.74219,-2.356445 -0.48862,-0.581368 -1.15349,-0.872058 -1.99463,-0.87207 -0.84115,1.2e-5 -1.50912,0.290702 -2.00391,0.87207 -0.48861,0.575207 -0.73291,1.360688 -0.73291,2.356445 0,1.001962 0.2443,1.790535 0.73291,2.365723 0.49479,0.575202 1.16276,0.862799 2.00391,0.862793" id="path3979" style="line-height:125%;fill:#681e8b;fill-opacity:1;stroke:none;font-family:Bitstream Vera Sans;-inkscape-font-specification:Bitstream Vera Sans"/>
    </g>
  </g>
  <g id="g4040" style="fill:#ff0000;fill-opacity:1">
    <g id="text8790" style="font-size:19px;font-style:normal;font-variant:normal;font-weight:normal;font-stretch:normal;text-align:start;line-height:125%;writing-mode:lr-tb;text-anchor:start;fill:#ff0000;fill-opacity:1;stroke:none;font-family:Bitstream Vera Sans;-inkscape-font-specification:Bitstream Vera Sans">
      <path d="m 333.74194,38.443031 5.00049,0 0,1.521485 -5.00049,0 0,-1.521485" id="path3974" style="line-height:125%;fill:#ff0000;fill-opacity:1;font-family:Bitstream Vera Sans;-inkscape-font-specification:Bitstream Vera Sans"/>
      <path d="m 342.03589,42.831215 3.06152,0 0,-10.566895 -3.33056,0.667969 0,-1.707031 3.31201,-0.667969 1.87402,0 0,12.273926 3.06152,0 0,1.577148 -7.97851,0 0,-1.577148" id="path3976" style="line-height:125%;fill:#ff0000;fill-opacity:1;font-family:Bitstream Vera Sans;-inkscape-font-specification:Bitstream Vera Sans"/>
    </g>
    <g id="text8794" style="font-size:19px;font-style:normal;font-variant:normal;font-weight:normal;font-stretch:normal;text-align:start;line-height:125%;writing-mode:lr-tb;text-anchor:start;fill:#ff0000;fill-opacity:1;stroke:none;font-family:Bitstream Vera Sans;-inkscape-font-specification:Bitstream Vera Sans">
      <path d="m 302.1394,38.443031 5.00049,0 0,1.521485 -5.00049,0 0,-1.521485" id="path3969" style="line-height:125%;fill:#ff0000;fill-opacity:1;font-family:Bitstream Vera Sans;-inkscape-font-specification:Bitstream Vera Sans"/>
      <path d="m 311.7229,42.831215 6.54053,0 0,1.577148 -8.79492,0 0,-1.577148 c 0.71126,-0.736 1.67919,-1.72249 2.9038,-2.959473 1.23079,-1.243158 2.0039,-2.044101 2.31934,-2.402832 0.59993,-0.674146 1.01741,-1.243156 1.25244,-1.707031 0.2412,-0.470043 0.36181,-0.930817 0.36182,-1.382324 -10e-6,-0.735992 -0.25978,-1.335926 -0.7793,-1.799805 -0.51335,-0.463855 -1.18441,-0.695788 -2.01318,-0.695801 -0.58757,1.3e-5 -1.20915,0.102063 -1.86475,0.306153 -0.64942,0.204113 -1.34522,0.513358 -2.0874,0.927734 l 0,-1.892578 c 0.75455,-0.303047 1.45963,-0.531887 2.11523,-0.686524 0.6556,-0.154608 1.25553,-0.231919 1.79981,-0.231933 1.43489,1.4e-5 2.57909,0.358738 3.43262,1.076172 0.8535,0.71746 1.28026,1.676118 1.28027,2.875976 -10e-6,0.56902 -0.10825,1.110198 -0.32471,1.623535 -0.21029,0.50717 -0.59685,1.107104 -1.15967,1.799805 -0.15463,0.179369 -0.64633,0.698899 -1.47509,1.558594 -0.82879,0.85352 -1.99773,2.050296 -3.50684,3.590332" id="path3971" style="line-height:125%;fill:#ff0000;fill-opacity:1;font-family:Bitstream Vera Sans;-inkscape-font-specification:Bitstream Vera Sans"/>
    </g>
    <g id="text8798" style="font-size:19px;font-style:normal;font-variant:normal;font-weight:normal;font-stretch:normal;text-align:start;line-height:125%;writing-mode:lr-tb;text-anchor:start;fill:#ff0000;fill-opacity:1;stroke:none;font-family:Bitstream Vera Sans;-inkscape-font-specification:Bitstream Vera Sans">
      <path d="m 270.28998,38.443031 5.00049,0 0,1.521485 -5.00049,0 0,-1.521485" id="path3964" style="line-height:125%;fill:#ff0000;fill-opacity:1;font-family:Bitstream Vera Sans;-inkscape-font-specification:Bitstream Vera Sans"/>
      <path d="m 283.93695,36.940102 c 0.8968,0.191739 1.59569,0.590664 2.09668,1.196777 0.50715,0.606125 0.76073,1.354497 0.76074,2.245117 -1e-5,1.366865 -0.47006,2.424481 -1.41015,3.172852 -0.94012,0.748372 -2.27605,1.122558 -4.00782,1.122558 -0.58138,0 -1.18132,-0.05876 -1.7998,-0.176269 -0.61231,-0.111328 -1.24626,-0.281413 -1.90186,-0.510254 l 0,-1.809082 c 0.51953,0.303062 1.08854,0.531903 1.70703,0.686523 0.61849,0.154624 1.26481,0.231935 1.93897,0.231934 1.17512,1e-6 2.06884,-0.231932 2.68115,-0.695801 0.61848,-0.463865 0.92773,-1.138018 0.92774,-2.022461 -10e-6,-0.816401 -0.28761,-1.453445 -0.8628,-1.911133 -0.56901,-0.46386 -1.36377,-0.695794 -2.38427,-0.6958 l -1.61426,0 0,-1.54004 1.68847,0 c 0.92155,9e-6 1.62663,-0.182446 2.11524,-0.547363 0.4886,-0.371084 0.7329,-0.902985 0.73291,-1.595703 -10e-6,-0.711252 -0.25359,-1.255522 -0.76074,-1.632812 -0.50099,-0.383452 -1.22153,-0.575183 -2.16162,-0.575196 -0.51336,1.3e-5 -1.06381,0.05568 -1.65137,0.166992 -0.58757,0.111341 -1.23389,0.284518 -1.93897,0.519532 l 0,-1.669922 c 0.71126,-0.197903 1.37614,-0.34634 1.99463,-0.445313 0.62467,-0.09894 1.21224,-0.148423 1.7627,-0.148437 1.42252,1.4e-5 2.54817,0.324721 3.37695,0.974121 0.82877,0.643242 1.24316,1.515311 1.24317,2.616211 -1e-5,0.766937 -0.21958,1.41635 -0.6587,1.948242 -0.43913,0.525724 -1.06381,0.890633 -1.87402,1.094727" id="path3966" style="line-height:125%;fill:#ff0000;fill-opacity:1;font-family:Bitstream Vera Sans;-inkscape-font-specification:Bitstream Vera Sans"/>
    </g>
    <g id="text8802" style="font-size:19px;font-style:normal;font-variant:normal;font-weight:normal;font-stretch:normal;text-align:start;line-height:125%;writing-mode:lr-tb;text-anchor:start;fill:#ff0000;fill-opacity:1;stroke:none;font-family:Bitstream Vera Sans;-inkscape-font-specification:Bitstream Vera Sans">
      <path d="m 238.19365,38.443031 5.00049,0 0,1.521485 -5.00049,0 0,-1.521485" id="path3959" style="line-height:125%;fill:#ff0000;fill-opacity:1;font-family:Bitstream Vera Sans;-inkscape-font-specification:Bitstream Vera Sans"/>
      <path d="m 251.31181,32.190102 -4.73144,7.394043 4.73144,0 0,-7.394043 m -0.4917,-1.632813 2.35645,0 0,9.026856 1.97607,0 0,1.558593 -1.97607,0 0,3.265625 -1.86475,0 0,-3.265625 -6.25293,0 0,-1.809082 5.76123,-8.776367" id="path3961" style="line-height:125%;fill:#ff0000;fill-opacity:1;font-family:Bitstream Vera Sans;-inkscape-font-specification:Bitstream Vera Sans"/>
    </g>
    <g id="text8806" style="font-size:19px;font-style:normal;font-variant:normal;font-weight:normal;font-stretch:normal;text-align:start;line-height:125%;writing-mode:lr-tb;text-anchor:start;fill:#ff0000;fill-opacity:1;stroke:none;font-family:Bitstream Vera Sans;-inkscape-font-specification:Bitstream Vera Sans">
      <path d="m 207.57869,38.443031 5.00049,0 0,1.521485 -5.00049,0 0,-1.521485" id="path3954" style="line-height:125%;fill:#ff0000;fill-opacity:1;font-family:Bitstream Vera Sans;-inkscape-font-specification:Bitstream Vera Sans"/>
      <path d="m 215.56648,30.557289 7.35694,0 0,1.577149 -5.64063,0 0,3.395507 c 0.27213,-0.09276 0.54427,-0.160798 0.81641,-0.204101 0.27213,-0.04947 0.54426,-0.07421 0.8164,-0.07422 1.54622,9e-6 2.77083,0.423674 3.67383,1.270996 0.90299,0.847338 1.35448,1.994635 1.35449,3.441895 -1e-5,1.490563 -0.46387,2.650229 -1.3916,3.479004 -0.92774,0.822591 -2.23584,1.233886 -3.92431,1.233886 -0.58139,0 -1.17514,-0.04948 -1.78125,-0.148437 -0.59994,-0.09896 -1.22152,-0.247396 -1.86475,-0.445313 l 0,-1.8833 c 0.55664,0.303061 1.13183,0.52881 1.72559,0.677246 0.59374,0.148439 1.22151,0.222657 1.8833,0.222656 1.06998,10e-7 1.91731,-0.281411 2.54199,-0.844238 0.62467,-0.562823 0.937,-1.326657 0.93701,-2.291504 -1e-5,-0.964839 -0.31234,-1.728673 -0.93701,-2.291504 -0.62468,-0.562818 -1.47201,-0.844231 -2.54199,-0.844239 -0.50098,8e-6 -1.00196,0.05567 -1.50293,0.166993 -0.4948,0.111335 -1.00196,0.284512 -1.52149,0.519531 l 0,-6.958008" id="path3956" style="line-height:125%;fill:#ff0000;fill-opacity:1;font-family:Bitstream Vera Sans;-inkscape-font-specification:Bitstream Vera Sans"/>
    </g>
    <g id="text8810" style="font-size:19px;font-style:normal;font-variant:normal;font-weight:normal;font-stretch:normal;text-align:start;line-height:125%;writing-mode:lr-tb;text-anchor:start;fill:#ff0000;fill-opacity:1;stroke:none;font-family:Bitstream Vera Sans;-inkscape-font-specification:Bitstream Vera Sans">
      <path d="m 175.48236,38.443031 5.00049,0 0,1.521485 -5.00049,0 0,-1.521485" id="path3949" style="line-height:125%;fill:#ff0000;fill-opacity:1;font-family:Bitstream Vera Sans;-inkscape-font-specification:Bitstream Vera Sans"/>
      <path d="m 187.69135,36.736 c -0.84116,8e-6 -1.50912,0.287605 -2.00391,0.862793 -0.48861,0.575202 -0.73291,1.363775 -0.73291,2.365723 0,0.995771 0.2443,1.784345 0.73291,2.365722 0.49479,0.575197 1.16275,0.862795 2.00391,0.862793 0.84113,2e-6 1.50601,-0.287596 1.99462,-0.862793 0.49479,-0.581377 0.74218,-1.369951 0.74219,-2.365722 -1e-5,-1.001948 -0.2474,-1.790521 -0.74219,-2.365723 -0.48861,-0.575188 -1.15349,-0.862785 -1.99462,-0.862793 m 3.72021,-5.872559 0,1.707032 c -0.47006,-0.222644 -0.9463,-0.392729 -1.42871,-0.510254 -0.47625,-0.117501 -0.94939,-0.176257 -1.41943,-0.17627 -1.23699,1.3e-5 -2.18328,0.417493 -2.83887,1.252442 -0.64942,0.834971 -1.02051,2.096689 -1.11328,3.785156 0.3649,-0.538078 0.82258,-0.949373 1.37304,-1.233887 0.55045,-0.290681 1.15657,-0.436026 1.81836,-0.436035 1.3916,9e-6 2.48942,0.423674 3.29346,1.270996 0.81021,0.841153 1.21532,1.98845 1.21533,3.441895 -1e-5,1.422529 -0.42058,2.563641 -1.26172,3.42334 -0.84115,0.8597 -1.96062,1.28955 -3.35839,1.28955 -1.6019,0 -2.82651,-0.612304 -3.67383,-1.836914 -0.84734,-1.230791 -1.271,-3.012039 -1.271,-5.34375 0,-2.189444 0.51953,-3.933583 1.55859,-5.232422 1.03906,-1.304999 2.43376,-1.957505 4.18409,-1.957519 0.47004,1.4e-5 0.94319,0.0464 1.41943,0.13916 0.48241,0.09279 0.98339,0.231947 1.50293,0.41748" id="path3951" style="line-height:125%;fill:#ff0000;fill-opacity:1;font-family:Bitstream Vera Sans;-inkscape-font-specification:Bitstream Vera Sans"/>
    </g>
    <g id="text8814" style="font-size:19px;font-style:normal;font-variant:normal;font-weight:normal;font-stretch:normal;text-align:start;line-height:125%;writing-mode:lr-tb;text-anchor:start;fill:#ff0000;fill-opacity:1;stroke:none;font-family:Bitstream Vera Sans;-inkscape-font-specification:Bitstream Vera Sans">
      <path d="m 143.63293,38.443031 5.00049,0 0,1.521485 -5.00049,0 0,-1.521485" id="path3944" style="line-height:125%;fill:#ff0000;fill-opacity:1;font-family:Bitstream Vera Sans;-inkscape-font-specification:Bitstream Vera Sans"/>
      <path d="m 151.12903,30.557289 8.90625,0 0,0.797852 -5.02832,13.053222 -1.95752,0 4.73144,-12.273925 -6.65185,0 0,-1.577149" id="path3946" style="line-height:125%;fill:#ff0000;fill-opacity:1;font-family:Bitstream Vera Sans;-inkscape-font-specification:Bitstream Vera Sans"/>
    </g>
    <g id="text8818" style="font-size:19px;font-style:normal;font-variant:normal;font-weight:normal;font-stretch:normal;text-align:start;line-height:125%;writing-mode:lr-tb;text-anchor:start;fill:#ff0000;fill-opacity:1;stroke:none;font-family:Bitstream Vera Sans;-inkscape-font-specification:Bitstream Vera Sans">
      <path d="m 112.27728,38.443031 5.00049,0 0,1.521485 -5.00049,0 0,-1.521485" id="path3939" style="line-height:125%;fill:#ff0000;fill-opacity:1;font-family:Bitstream Vera Sans;-inkscape-font-specification:Bitstream Vera Sans"/>
      <path d="m 124.25433,37.830727 c -0.89063,6e-6 -1.59261,0.238124 -2.10595,0.714355 -0.50717,0.476242 -0.76075,1.131841 -0.76075,1.966797 0,0.834964 0.25358,1.490562 0.76075,1.966797 0.51334,0.476238 1.21532,0.714357 2.10595,0.714355 0.89062,2e-6 1.59261,-0.238117 2.10596,-0.714355 0.51334,-0.48242 0.77001,-1.138018 0.77002,-1.966797 -10e-6,-0.834956 -0.25668,-1.490555 -0.77002,-1.966797 -0.50717,-0.476231 -1.20915,-0.714349 -2.10596,-0.714355 m -1.87402,-0.797852 c -0.80404,-0.197909 -1.43181,-0.572095 -1.8833,-1.122559 -0.44532,-0.550446 -0.66797,-1.221507 -0.66797,-2.013183 0,-1.107085 0.39274,-1.982247 1.17822,-2.625488 0.79167,-0.643216 1.87402,-0.96483 3.24707,-0.964844 1.37923,1.4e-5 2.46158,0.321628 3.24707,0.964844 0.78548,0.643241 1.17822,1.518403 1.17823,2.625488 -1e-5,0.791676 -0.22576,1.462737 -0.67725,2.013183 -0.44532,0.550464 -1.0669,0.92465 -1.86475,1.122559 0.90299,0.210294 1.60498,0.621589 2.10596,1.233887 0.50715,0.61231 0.76073,1.360682 0.76074,2.245117 -1e-5,1.342125 -0.4113,2.371909 -1.23388,3.089355 -0.81642,0.717448 -1.98845,1.076172 -3.51612,1.076172 -1.52767,0 -2.7028,-0.358724 -3.52539,-1.076172 -0.81641,-0.717446 -1.22461,-1.74723 -1.22461,-3.089355 0,-0.884435 0.25358,-1.632807 0.76075,-2.245117 0.50715,-0.612298 1.21223,-1.023593 2.11523,-1.233887 m -0.68652,-2.959473 c -1e-5,0.717458 0.22265,1.27719 0.66797,1.6792 0.45149,0.402026 1.08235,0.603035 1.89257,0.603027 0.80403,8e-6 1.4318,-0.201001 1.8833,-0.603027 0.45768,-0.40201 0.68652,-0.961742 0.68653,-1.6792 -1e-5,-0.717436 -0.22885,-1.277169 -0.68653,-1.679199 -0.4515,-0.402006 -1.07927,-0.603015 -1.8833,-0.603027 -0.81022,1.2e-5 -1.44108,0.201021 -1.89257,0.603027 -0.44532,0.40203 -0.66798,0.961763 -0.66797,1.679199" id="path3941" style="line-height:125%;fill:#ff0000;fill-opacity:1;font-family:Bitstream Vera Sans;-inkscape-font-specification:Bitstream Vera Sans"/>
    </g>
    <g id="text8822" style="font-size:19px;font-style:normal;font-variant:normal;font-weight:normal;font-stretch:normal;text-align:start;line-height:125%;writing-mode:lr-tb;text-anchor:start;fill:#ff0000;fill-opacity:1;stroke:none;font-family:Bitstream Vera Sans;-inkscape-font-specification:Bitstream Vera Sans">
      <path d="m 80.180954,38.196136 5.000488,0 0,1.521485 -5.000488,0 0,-1.521485" id="path3934" style="line-height:125%;fill:#ff0000;fill-opacity:1;font-family:Bitstream Vera Sans;-inkscape-font-specification:Bitstream Vera Sans"/>
      <path d="m 88.205856,43.873871 0,-1.707031 c 0.47005,0.222658 0.946286,0.392742 1.428711,0.510254 0.482418,0.117514 0.955562,0.17627 1.419434,0.176269 1.236973,10e-7 2.180169,-0.414386 2.82959,-1.243164 0.65559,-0.834958 1.029776,-2.099768 1.122558,-3.794434 -0.358732,0.531907 -0.813322,0.94011 -1.363769,1.22461 -0.550463,0.28451 -1.159675,0.426762 -1.827637,0.426758 -1.385421,4e-6 -2.483239,-0.417476 -3.293457,-1.252442 -0.804038,-0.841139 -1.206056,-1.988436 -1.206055,-3.441894 -10e-7,-1.422516 0.420572,-2.563628 1.261719,-3.42334 0.841143,-0.859687 1.960608,-1.289537 3.358399,-1.289551 1.60188,1.4e-5 2.823396,0.615411 3.66455,1.846191 0.847321,1.224621 1.270986,3.005869 1.270996,5.34375 -1e-5,2.183273 -0.519541,3.927412 -1.558593,5.232422 -1.032886,1.298829 -2.424486,1.948242 -4.174805,1.948242 -0.470057,0 -0.946293,-0.04639 -1.428711,-0.13916 -0.482425,-0.09277 -0.983401,-0.231933 -1.50293,-0.41748 m 3.729493,-5.872559 c 0.841139,6e-6 1.506014,-0.287591 1.994628,-0.862793 0.494784,-0.575187 0.742179,-1.363761 0.742188,-2.365722 -9e-6,-0.995758 -0.247404,-1.781239 -0.742188,-2.356446 -0.488614,-0.581368 -1.153489,-0.872057 -1.994628,-0.87207 -0.841151,1.3e-5 -1.509119,0.290702 -2.003907,0.87207 -0.48861,0.575207 -0.732913,1.360688 -0.73291,2.356446 -3e-6,1.001961 0.2443,1.790535 0.73291,2.365722 0.494788,0.575202 1.162756,0.862799 2.003907,0.862793" id="path3936" style="line-height:125%;fill:#ff0000;fill-opacity:1;font-family:Bitstream Vera Sans;-inkscape-font-specification:Bitstream Vera Sans"/>
    </g>
  </g>
  <g id="g4265">
    <path d="m 38,13 339,0" id="path2826" style="fill:#ff0000;fill-opacity:1;stroke:#ff0000;stroke-width:2;stroke-linecap:butt;stroke-linejoin:miter;stroke-miterlimit:3;stroke-opacity:1;stroke-dasharray:none;marker-start:none;marker-end:none"/>
    <path d="m 344.91207,9.3492985 0,10.8633725" id="path8692" style="fill:#ff0000;fill-opacity:1;stroke:#ff0000;stroke-width:1px;stroke-linecap:square;stroke-linejoin:miter;stroke-opacity:1"/>
    <path d="m 313.06264,9.3492985 0,10.8633725" id="path8694" style="fill:#ff0000;fill-opacity:1;stroke:#ff0000;stroke-width:1px;stroke-linecap:square;stroke-linejoin:miter;stroke-opacity:1"/>
    <path d="m 281.83044,9.3492985 0,10.8633725" id="path8698" style="fill:#ff0000;fill-opacity:1;stroke:#ff0000;stroke-width:1px;stroke-linecap:square;stroke-linejoin:miter;stroke-opacity:1"/>
    <path d="m 249.85756,9.3492985 0,10.8633725" id="path8700" style="fill:#ff0000;fill-opacity:1;stroke:#ff0000;stroke-width:1px;stroke-linecap:square;stroke-linejoin:miter;stroke-opacity:1"/>
    <path d="m 218.62536,9.3492985 0,10.8633725" id="path8704" style="fill:#ff0000;fill-opacity:1;stroke:#ff0000;stroke-width:1px;stroke-linecap:square;stroke-linejoin:miter;stroke-opacity:1"/>
    <path d="m 186.77593,9.3492985 0,10.8633725" id="path8706" style="fill:#ff0000;fill-opacity:1;stroke:#ff0000;stroke-width:1px;stroke-linecap:square;stroke-linejoin:miter;stroke-opacity:1"/>
    <path d="m 155.54373,9.3492985 0,10.8633725" id="path8710" style="fill:#ff0000;fill-opacity:1;stroke:#ff0000;stroke-width:1px;stroke-linecap:square;stroke-linejoin:miter;stroke-opacity:1"/>
    <path d="m 123.6943,9.3492985 0,10.8633725" id="path8712" style="fill:#ff0000;fill-opacity:1;stroke:#ff0000;stroke-width:1px;stroke-linecap:square;stroke-linejoin:miter;stroke-opacity:1"/>
    <path d="m 92.462104,9.3492985 0,10.8633725" id="path8716" style="fill:#ff0000;fill-opacity:1;stroke:#ff0000;stroke-width:1px;stroke-linecap:square;stroke-linejoin:miter;stroke-opacity:1"/>
    <path d="m 60.612674,9.3492985 0,10.8633725" id="path8718" style="fill:#ff0000;fill-opacity:1;stroke:#ff0000;stroke-width:1px;stroke-linecap:square;stroke-linejoin:miter;stroke-opacity:1"/>
    <path d="m 13.332321,13.17617 24.936377,-3.086185 0,6.172371 -24.936377,-3.086186 z" id="path8746" style="fill:#ff0000;fill-opacity:1;stroke:none"/>
    <path d="m 377,13 338,0" id="path3752" style="fill:none;stroke:#7b02ff;stroke-width:2;stroke-linecap:butt;stroke-linejoin:miter;stroke-miterlimit:3;stroke-opacity:1;stroke-dasharray:none;marker-start:none;marker-end:none"/>
    <path d="m 692.66344,9.3492985 0,10.8633725" id="path8654" style="fill:none;stroke:#7b02ff;stroke-width:1px;stroke-linecap:square;stroke-linejoin:miter;stroke-opacity:1"/>
    <path d="m 661.43124,9.3492985 0,10.8633725" id="path8656" style="fill:none;stroke:#7b02ff;stroke-width:1px;stroke-linecap:square;stroke-linejoin:miter;stroke-opacity:1"/>
    <path d="m 629.58181,9.3492985 0,10.8633725" id="path8660" style="fill:none;stroke:#7b02ff;stroke-width:1px;stroke-linecap:square;stroke-linejoin:miter;stroke-opacity:1"/>
    <path d="m 598.34961,9.3492985 0,10.8633725" id="path8662" style="fill:none;stroke:#7b02ff;stroke-width:1px;stroke-linecap:square;stroke-linejoin:miter;stroke-opacity:1"/>
    <path d="m 566.37673,9.3492985 0,10.8633725" id="path8666" style="fill:none;stroke:#7b02ff;stroke-width:1px;stroke-linecap:square;stroke-linejoin:miter;stroke-opacity:1"/>
    <path d="m 535.14453,9.3492985 0,10.8633725" id="path8668" style="fill:none;stroke:#7b02ff;stroke-width:1px;stroke-linecap:square;stroke-linejoin:miter;stroke-opacity:1"/>
    <path d="m 503.2951,9.3492985 0,10.8633725" id="path8672" style="fill:none;stroke:#7b02ff;stroke-width:1px;stroke-linecap:square;stroke-linejoin:miter;stroke-opacity:1"/>
    <path d="m 472.0629,9.3492985 0,10.8633725" id="path8674" style="fill:none;stroke:#7b02ff;stroke-width:1px;stroke-linecap:square;stroke-linejoin:miter;stroke-opacity:1"/>
    <path d="m 440.21347,9.3492985 0,10.8633725" id="path8678" style="fill:none;stroke:#7b02ff;stroke-width:1px;stroke-linecap:square;stroke-linejoin:miter;stroke-opacity:1"/>
    <path d="m 408.98127,9.3492985 0,10.8633725" id="path8682" style="fill:none;stroke:#7b02ff;stroke-width:1px;stroke-linecap:square;stroke-linejoin:miter;stroke-opacity:1"/>
    <path d="m 737.96864,13.17617 -24.93638,-3.086185 0,6.172371 24.93638,-3.086186 z" id="path8748" style="fill:#7b02ff;fill-opacity:1;stroke:none"/>
    <path d="m 376.81449,13.793406 32.48412,0" id="path3722" style="fill:none;stroke:#7b02ff;stroke-width:3.79999995;stroke-linecap:butt;stroke-linejoin:miter;stroke-miterlimit:4;stroke-opacity:1;stroke-dasharray:none"/>
    <path d="m 377.13184,8.1148244 0,13.5792156" id="path8684" style="fill:none;stroke:#000000;stroke-width:2;stroke-linecap:square;stroke-linejoin:miter;stroke-miterlimit:4;stroke-opacity:1;stroke-dasharray:none"/>
  </g>
</svg>